<?xml version="1.0" encoding="utf-8"?>
<svg version="1.1" baseProfile="tiny" id="Layer_1" xmlns="http://www.w3.org/2000/svg" xmlns:xlink="http://www.w3.org/1999/xlink"
	 x="0px" y="0px" viewBox="0 0 64 64" xml:space="preserve">
<path fill="#D77B0F" d="M47,29c0,1.6-1.2,3.5-2.8,4.2L18.8,43.8C17.2,44.5,16,43.7,16,42v-7c0-1.7,1.2-3.5,2.8-4.2l25.5-10.7
	c1.5-0.6,2.8,0.2,2.8,1.8V29z"/>
<path fill="#D77B0F" d="M47,10c0,1.6-1.2,3.5-2.8,4.2L18.8,24.8C17.2,25.5,16,24.6,16,23v-7c0-1.6,1.2-3.5,2.8-4.2L44.2,1.2
	C45.8,0.5,47,1.4,47,3V10z"/>
<path fill="#D77B0F" d="M47,48c0,1.7-1.2,3.5-2.8,4.2L18.8,62.8C17.2,63.5,16,62.7,16,61v-7c0-1.7,1.2-3.5,2.8-4.2l25.5-10.7
	c1.5-0.6,2.8,0.2,2.8,1.8V48z"/>
</svg>
